# xmcd
#
# Track frame offsets:
#	150
#	22382
#	45743
#	59893
#	80455
#	100240
#	115671
#	135831
#	152320
#	169336
#	185811
#	206172
#
# Disc length: 3002 seconds
#
# Revision: 5
# Processed by: cddbd v1.5.2PL0 Copyright (c) Steve Scherf et al.
# Submitted via: EasyCDDAExtractor 15.3.0.1
#
DISCID=a80bb80c
DTITLE=Olga Tañon - Como Olvidar... Lo Mejor De Olga Tañon
DYEAR=2005
DGENRE=Latin
TTITLE0=Como Olvidar (Version Balada)
TTITLE1=Mi Eterno Amor Secreto
TTITLE2=Me Subes, Me Bajas, Me Subes
TTITLE3=Tu Amor
TTITLE4=¡Basta Ya!
TTITLE5=Hielo Y Fuego
TTITLE6=Escondidos (A Duo Con Cristian Castro)
TTITLE7=Te Acordaras De Mi
TTITLE8=Asi Es La Vida
TTITLE9=Por Tu Amor
TTITLE10=No Podras
TTITLE11=Quien Diria (A Duo Con Luis Fonsi)
EXTD=
EXTT0=
EXTT1=
EXTT2=
EXTT3=
EXTT4=
EXTT5=
EXTT6=
EXTT7=
EXTT8=
EXTT9=
EXTT10=
EXTT11=
PLAYORDER=
